<svg xmlns="http://www.w3.org/2000/svg" xmlns:xlink="http://www.w3.org/1999/xlink" version="1.1" width="96" height="96" viewBox="0 0 96 96">
<path d="M22 90c-11.216 0-20-5.268-20-12s8.784-12 20-12 20 5.268 20 12-8.784 12-20 12zM22 70c-9.428 0-16 4.216-16 8s6.572 8 16 8 16-4.216 16-8-6.572-8-16-8z" fill="#000000"/>
	<path d="M38 74c-1.104 0-2-0.896-2-2v-52c0-0.928 0.644-1.74 1.552-1.948l52-12c0.588-0.136 1.22 0.008 1.696 0.392 0.48 0.376 0.752 0.948 0.752 1.564v52c0 1.104-0.9 2-2 2s-2-0.896-2-2v-49.488l-48 11.080v50.4c0 1.104-0.896 2-2 2z" fill="#000000"/>
	<path d="M74 78c-11.216 0-20-5.268-20-12s8.784-12 20-12 20 5.268 20 12-8.784 12-20 12zM74 58c-9.428 0-16 4.216-16 8s6.572 8 16 8 16-4.216 16-8-6.572-8-16-8z" fill="#000000"/>
	<path d="M38 34c-0.912 0-1.732-0.624-1.948-1.552-0.248-1.080 0.424-2.148 1.5-2.404l52-12c1.076-0.248 2.144 0.424 2.4 1.5 0.248 1.084-0.424 2.148-1.5 2.408l-52 12c-0.152 0.032-0.304 0.048-0.452 0.048z" fill="#000000"/>
</svg>